<?xml version="1.0" encoding="UTF-8" standalone="no"?>
<!DOCTYPE svg PUBLIC "-//W3C//DTD SVG 1.1//EN"
 "http://www.w3.org/Graphics/SVG/1.1/DTD/svg11.dtd">
<!-- Generated by graphviz version 2.40.1 (20161225.0304)
 -->
<!-- Title: public.table1 Pages: 1 -->
<svg width="422pt" height="442pt"
 viewBox="0.00 0.00 422.00 442.00" xmlns="http://www.w3.org/2000/svg" xmlns:xlink="http://www.w3.org/1999/xlink">
<g id="graph0" class="graph" transform="scale(1 1) rotate(0) translate(4 438)">
<title>public.table1</title>
<polygon fill="#ffffff" stroke="transparent" points="-4,4 -4,-438 418,-438 418,4 -4,4"/>
<!-- public.table1 -->
<g id="node1" class="node">
<title>public.table1</title>
<polygon fill="#efefef" stroke="transparent" points="126,-105.5 126,-140.5 368,-140.5 368,-105.5 126,-105.5"/>
<polygon fill="none" stroke="#000000" points="126,-105.5 126,-140.5 368,-140.5 368,-105.5 126,-105.5"/>
<text text-anchor="start" x="132.7008" y="-118.3" font-family="Arial Bold" font-size="18.00" fill="#000000">public.table1</text>
<text text-anchor="start" x="233.7312" y="-118.3" font-family="Arial" font-size="14.00" fill="#000000">    </text>
<text text-anchor="start" x="267.936" y="-118.3" font-family="Arial" font-size="14.00" fill="#666666">[BASE TABLE]</text>
<polygon fill="none" stroke="#000000" points="126,-75.5 126,-105.5 368,-105.5 368,-75.5 126,-75.5"/>
<text text-anchor="start" x="133" y="-86.9" font-family="Arial" font-size="14.00" fill="#000000">id </text>
<text text-anchor="start" x="147.7798" y="-86.9" font-family="Arial" font-size="14.00" fill="#666666">[integer]</text>
<polygon fill="none" stroke="#000000" points="126,-45.5 126,-75.5 368,-75.5 368,-45.5 126,-45.5"/>
<text text-anchor="start" x="133" y="-56.9" font-family="Arial" font-size="14.00" fill="#000000">name </text>
<text text-anchor="start" x="171.899" y="-56.9" font-family="Arial" font-size="14.00" fill="#666666">[varchar(100)]</text>
<polygon fill="none" stroke="#000000" stroke-width="3" points="124.5,-44.5 124.5,-142.5 369.5,-142.5 369.5,-44.5 124.5,-44.5"/>
</g>
<!-- public.table2 -->
<g id="node2" class="node">
<title>public.table2</title>
<polygon fill="#efefef" stroke="transparent" points="126,-355.5 126,-390.5 368,-390.5 368,-355.5 126,-355.5"/>
<polygon fill="none" stroke="#000000" points="126,-355.5 126,-390.5 368,-390.5 368,-355.5 126,-355.5"/>
<text text-anchor="start" x="132.7008" y="-368.3" font-family="Arial Bold" font-size="18.00" fill="#000000">public.table2</text>
<text text-anchor="start" x="233.7312" y="-368.3" font-family="Arial" font-size="14.00" fill="#000000">    </text>
<text text-anchor="start" x="267.936" y="-368.3" font-family="Arial" font-size="14.00" fill="#666666">[BASE TABLE]</text>
<polygon fill="none" stroke="#000000" points="126,-325.5 126,-355.5 368,-355.5 368,-325.5 126,-325.5"/>
<text text-anchor="start" x="133" y="-336.9" font-family="Arial" font-size="14.00" fill="#000000">id    </text>
<text text-anchor="start" x="178.094" y="-336.9" font-family="Arial" font-size="14.00" fill="#666666">[integer]</text>
<polygon fill="none" stroke="#000000" points="126,-295.5 126,-325.5 368,-325.5 368,-295.5 126,-295.5"/>
<text text-anchor="start" x="133" y="-306.9" font-family="Arial" font-size="14.00" fill="#000000">name    </text>
<text text-anchor="start" x="202.2132" y="-306.9" font-family="Arial" font-size="14.00" fill="#666666">[varchar(100)]</text>
<polygon fill="none" stroke="#000000" points="126,-265.5 126,-295.5 368,-295.5 368,-265.5 126,-265.5"/>
<text text-anchor="start" x="133" y="-276.9" font-family="Arial" font-size="14.00" fill="#000000">table1_id    </text>
<text text-anchor="start" x="224.0042" y="-276.9" font-family="Arial" font-size="14.00" fill="#666666">[integer]</text>
</g>
<!-- public.table2&#45;&gt;public.table1 -->
<g id="edge1" class="edge">
<title>public.table2:table1_id&#45;&gt;public.table1:id</title>
<path fill="none" stroke="#000000" d="M247.9009,-255.2828C257.3884,-205.9729 339.1925,-240.028 368,-187 388.4734,-149.3132 410.8889,-90.5 368,-90.5"/>
<polygon fill="#000000" stroke="#000000" points="247.8784,-255.5386 242.5174,-265.1047 247.4392,-260.5193 247,-265.5 247,-265.5 247,-265.5 247.4392,-260.5193 251.4826,-265.8953 247.8784,-255.5386 247.8784,-255.5386"/>
<text text-anchor="start" x="7.0475" y="-275.5" font-family="Arial" font-size="10.00" fill="#000000">FOREIGN KEY (table1_id) REFERENCES table1(id)</text>
</g>
</g>
</svg>
