<?xml version="1.0" encoding="UTF-8" standalone="no"?>
<!DOCTYPE svg PUBLIC "-//W3C//DTD SVG 1.1//EN"
 "http://www.w3.org/Graphics/SVG/1.1/DTD/svg11.dtd">
<!-- Generated by graphviz version 2.40.1 (20161225.0304)
 -->
<!-- Title: public.table2 Pages: 1 -->
<svg width="422pt" height="689pt"
 viewBox="0.00 0.00 422.00 689.00" xmlns="http://www.w3.org/2000/svg" xmlns:xlink="http://www.w3.org/1999/xlink">
<g id="graph0" class="graph" transform="scale(1 1) rotate(0) translate(4 685)">
<title>public.table2</title>
<polygon fill="#ffffff" stroke="transparent" points="-4,4 -4,-685 418,-685 418,4 -4,4"/>
<!-- public.table2 -->
<g id="node1" class="node">
<title>public.table2</title>
<polygon fill="#efefef" stroke="transparent" points="126,-352.5 126,-387.5 368,-387.5 368,-352.5 126,-352.5"/>
<polygon fill="none" stroke="#000000" points="126,-352.5 126,-387.5 368,-387.5 368,-352.5 126,-352.5"/>
<text text-anchor="start" x="132.7008" y="-365.3" font-family="Arial Bold" font-size="18.00" fill="#000000">public.table2</text>
<text text-anchor="start" x="233.7312" y="-365.3" font-family="Arial" font-size="14.00" fill="#000000">    </text>
<text text-anchor="start" x="267.936" y="-365.3" font-family="Arial" font-size="14.00" fill="#666666">[BASE TABLE]</text>
<polygon fill="none" stroke="#000000" points="126,-322.5 126,-352.5 368,-352.5 368,-322.5 126,-322.5"/>
<text text-anchor="start" x="133" y="-333.9" font-family="Arial" font-size="14.00" fill="#000000">id </text>
<text text-anchor="start" x="147.7798" y="-333.9" font-family="Arial" font-size="14.00" fill="#666666">[integer]</text>
<polygon fill="none" stroke="#000000" points="126,-292.5 126,-322.5 368,-322.5 368,-292.5 126,-292.5"/>
<text text-anchor="start" x="133" y="-303.9" font-family="Arial" font-size="14.00" fill="#000000">name </text>
<text text-anchor="start" x="171.899" y="-303.9" font-family="Arial" font-size="14.00" fill="#666666">[varchar(100)]</text>
<polygon fill="none" stroke="#000000" points="126,-262.5 126,-292.5 368,-292.5 368,-262.5 126,-262.5"/>
<text text-anchor="start" x="133" y="-273.9" font-family="Arial" font-size="14.00" fill="#000000">table1_id </text>
<text text-anchor="start" x="193.69" y="-273.9" font-family="Arial" font-size="14.00" fill="#666666">[integer]</text>
<polygon fill="none" stroke="#000000" stroke-width="3" points="124.5,-261.5 124.5,-389.5 369.5,-389.5 369.5,-261.5 124.5,-261.5"/>
</g>
<!-- public.table1 -->
<g id="node3" class="node">
<title>public.table1</title>
<polygon fill="#efefef" stroke="transparent" points="126,-102.5 126,-137.5 368,-137.5 368,-102.5 126,-102.5"/>
<polygon fill="none" stroke="#000000" points="126,-102.5 126,-137.5 368,-137.5 368,-102.5 126,-102.5"/>
<text text-anchor="start" x="132.7008" y="-115.3" font-family="Arial Bold" font-size="18.00" fill="#000000">public.table1</text>
<text text-anchor="start" x="233.7312" y="-115.3" font-family="Arial" font-size="14.00" fill="#000000">    </text>
<text text-anchor="start" x="267.936" y="-115.3" font-family="Arial" font-size="14.00" fill="#666666">[BASE TABLE]</text>
<polygon fill="none" stroke="#000000" points="126,-72.5 126,-102.5 368,-102.5 368,-72.5 126,-72.5"/>
<text text-anchor="start" x="133" y="-83.9" font-family="Arial" font-size="14.00" fill="#000000">id    </text>
<text text-anchor="start" x="178.094" y="-83.9" font-family="Arial" font-size="14.00" fill="#666666">[integer]</text>
<polygon fill="none" stroke="#000000" points="126,-42.5 126,-72.5 368,-72.5 368,-42.5 126,-42.5"/>
<text text-anchor="start" x="133" y="-53.9" font-family="Arial" font-size="14.00" fill="#000000">name    </text>
<text text-anchor="start" x="202.2132" y="-53.9" font-family="Arial" font-size="14.00" fill="#666666">[varchar(100)]</text>
</g>
<!-- public.table2&#45;&gt;public.table1 -->
<g id="edge2" class="edge">
<title>public.table2:table1_id&#45;&gt;public.table1:id</title>
<path fill="none" stroke="#000000" d="M247.844,-252.4601C257.0639,-201.9439 339.2663,-234.9974 368,-181 387.5212,-144.315 409.5556,-87.5 368,-87.5"/>
<polygon fill="#000000" stroke="#000000" points="247.8378,-252.5352 242.5158,-262.123 247.4189,-257.5176 247,-262.5 247,-262.5 247,-262.5 247.4189,-257.5176 251.4842,-262.877 247.8378,-252.5352 247.8378,-252.5352"/>
<text text-anchor="start" x="7.0475" y="-272.5" font-family="Arial" font-size="10.00" fill="#000000">FOREIGN KEY (table1_id) REFERENCES table1(id)</text>
</g>
<!-- public.table3 -->
<g id="node2" class="node">
<title>public.table3</title>
<polygon fill="#efefef" stroke="transparent" points="126,-602.5 126,-637.5 368,-637.5 368,-602.5 126,-602.5"/>
<polygon fill="none" stroke="#000000" points="126,-602.5 126,-637.5 368,-637.5 368,-602.5 126,-602.5"/>
<text text-anchor="start" x="132.7008" y="-615.3" font-family="Arial Bold" font-size="18.00" fill="#000000">public.table3</text>
<text text-anchor="start" x="233.7312" y="-615.3" font-family="Arial" font-size="14.00" fill="#000000">    </text>
<text text-anchor="start" x="267.936" y="-615.3" font-family="Arial" font-size="14.00" fill="#666666">[BASE TABLE]</text>
<polygon fill="none" stroke="#000000" points="126,-572.5 126,-602.5 368,-602.5 368,-572.5 126,-572.5"/>
<text text-anchor="start" x="133" y="-583.9" font-family="Arial" font-size="14.00" fill="#000000">id    </text>
<text text-anchor="start" x="178.094" y="-583.9" font-family="Arial" font-size="14.00" fill="#666666">[integer]</text>
<polygon fill="none" stroke="#000000" points="126,-542.5 126,-572.5 368,-572.5 368,-542.5 126,-542.5"/>
<text text-anchor="start" x="133" y="-553.9" font-family="Arial" font-size="14.00" fill="#000000">name    </text>
<text text-anchor="start" x="202.2132" y="-553.9" font-family="Arial" font-size="14.00" fill="#666666">[varchar(100)]</text>
<polygon fill="none" stroke="#000000" points="126,-512.5 126,-542.5 368,-542.5 368,-512.5 126,-512.5"/>
<text text-anchor="start" x="133" y="-523.9" font-family="Arial" font-size="14.00" fill="#000000">table2_id    </text>
<text text-anchor="start" x="224.0042" y="-523.9" font-family="Arial" font-size="14.00" fill="#666666">[integer]</text>
</g>
<!-- public.table3&#45;&gt;public.table2 -->
<g id="edge1" class="edge">
<title>public.table3:table2_id&#45;&gt;public.table2:id</title>
<path fill="none" stroke="#000000" d="M247.9009,-502.2828C257.3884,-452.9729 339.1925,-487.028 368,-434 388.4734,-396.3132 410.8889,-337.5 368,-337.5"/>
<polygon fill="#000000" stroke="#000000" points="247.8784,-502.5386 242.5174,-512.1047 247.4392,-507.5193 247,-512.5 247,-512.5 247,-512.5 247.4392,-507.5193 251.4826,-512.8953 247.8784,-502.5386 247.8784,-502.5386"/>
<text text-anchor="start" x="7.0475" y="-522.5" font-family="Arial" font-size="10.00" fill="#000000">FOREIGN KEY (table2_id) REFERENCES table2(id)</text>
</g>
</g>
</svg>
