<?xml version="1.0" encoding="UTF-8" standalone="no"?>
<!DOCTYPE svg PUBLIC "-//W3C//DTD SVG 1.1//EN"
 "http://www.w3.org/Graphics/SVG/1.1/DTD/svg11.dtd">
<!-- Generated by graphviz version 2.40.1 (20161225.0304)
 -->
<!-- Title: public.table3 Pages: 1 -->
<svg width="422pt" height="472pt"
 viewBox="0.00 0.00 422.00 472.00" xmlns="http://www.w3.org/2000/svg" xmlns:xlink="http://www.w3.org/1999/xlink">
<g id="graph0" class="graph" transform="scale(1 1) rotate(0) translate(4 468)">
<title>public.table3</title>
<polygon fill="#ffffff" stroke="transparent" points="-4,4 -4,-468 418,-468 418,4 -4,4"/>
<!-- public.table3 -->
<g id="node1" class="node">
<title>public.table3</title>
<polygon fill="#efefef" stroke="transparent" points="126,-382.5 126,-417.5 368,-417.5 368,-382.5 126,-382.5"/>
<polygon fill="none" stroke="#000000" points="126,-382.5 126,-417.5 368,-417.5 368,-382.5 126,-382.5"/>
<text text-anchor="start" x="132.7008" y="-395.3" font-family="Arial Bold" font-size="18.00" fill="#000000">public.table3</text>
<text text-anchor="start" x="233.7312" y="-395.3" font-family="Arial" font-size="14.00" fill="#000000">    </text>
<text text-anchor="start" x="267.936" y="-395.3" font-family="Arial" font-size="14.00" fill="#666666">[BASE TABLE]</text>
<polygon fill="none" stroke="#000000" points="126,-352.5 126,-382.5 368,-382.5 368,-352.5 126,-352.5"/>
<text text-anchor="start" x="133" y="-363.9" font-family="Arial" font-size="14.00" fill="#000000">id </text>
<text text-anchor="start" x="147.7798" y="-363.9" font-family="Arial" font-size="14.00" fill="#666666">[integer]</text>
<polygon fill="none" stroke="#000000" points="126,-322.5 126,-352.5 368,-352.5 368,-322.5 126,-322.5"/>
<text text-anchor="start" x="133" y="-333.9" font-family="Arial" font-size="14.00" fill="#000000">name </text>
<text text-anchor="start" x="171.899" y="-333.9" font-family="Arial" font-size="14.00" fill="#666666">[varchar(100)]</text>
<polygon fill="none" stroke="#000000" points="126,-292.5 126,-322.5 368,-322.5 368,-292.5 126,-292.5"/>
<text text-anchor="start" x="133" y="-303.9" font-family="Arial" font-size="14.00" fill="#000000">table2_id </text>
<text text-anchor="start" x="193.69" y="-303.9" font-family="Arial" font-size="14.00" fill="#666666">[integer]</text>
<polygon fill="none" stroke="#000000" stroke-width="3" points="124.5,-291.5 124.5,-419.5 369.5,-419.5 369.5,-291.5 124.5,-291.5"/>
</g>
<!-- public.table2 -->
<g id="node2" class="node">
<title>public.table2</title>
<polygon fill="#efefef" stroke="transparent" points="126,-132.5 126,-167.5 368,-167.5 368,-132.5 126,-132.5"/>
<polygon fill="none" stroke="#000000" points="126,-132.5 126,-167.5 368,-167.5 368,-132.5 126,-132.5"/>
<text text-anchor="start" x="132.7008" y="-145.3" font-family="Arial Bold" font-size="18.00" fill="#000000">public.table2</text>
<text text-anchor="start" x="233.7312" y="-145.3" font-family="Arial" font-size="14.00" fill="#000000">    </text>
<text text-anchor="start" x="267.936" y="-145.3" font-family="Arial" font-size="14.00" fill="#666666">[BASE TABLE]</text>
<polygon fill="none" stroke="#000000" points="126,-102.5 126,-132.5 368,-132.5 368,-102.5 126,-102.5"/>
<text text-anchor="start" x="133" y="-113.9" font-family="Arial" font-size="14.00" fill="#000000">id    </text>
<text text-anchor="start" x="178.094" y="-113.9" font-family="Arial" font-size="14.00" fill="#666666">[integer]</text>
<polygon fill="none" stroke="#000000" points="126,-72.5 126,-102.5 368,-102.5 368,-72.5 126,-72.5"/>
<text text-anchor="start" x="133" y="-83.9" font-family="Arial" font-size="14.00" fill="#000000">name    </text>
<text text-anchor="start" x="202.2132" y="-83.9" font-family="Arial" font-size="14.00" fill="#666666">[varchar(100)]</text>
<polygon fill="none" stroke="#000000" points="126,-42.5 126,-72.5 368,-72.5 368,-42.5 126,-42.5"/>
<text text-anchor="start" x="133" y="-53.9" font-family="Arial" font-size="14.00" fill="#000000">table1_id    </text>
<text text-anchor="start" x="224.0042" y="-53.9" font-family="Arial" font-size="14.00" fill="#666666">[integer]</text>
</g>
<!-- public.table3&#45;&gt;public.table2 -->
<g id="edge1" class="edge">
<title>public.table3:table2_id&#45;&gt;public.table2:id</title>
<path fill="none" stroke="#000000" d="M247.844,-282.4601C257.0639,-231.9439 339.2663,-264.9974 368,-211 387.5212,-174.315 409.5556,-117.5 368,-117.5"/>
<polygon fill="#000000" stroke="#000000" points="247.8378,-282.5352 242.5158,-292.123 247.4189,-287.5176 247,-292.5 247,-292.5 247,-292.5 247.4189,-287.5176 251.4842,-292.877 247.8378,-282.5352 247.8378,-282.5352"/>
<text text-anchor="start" x="7.0475" y="-302.5" font-family="Arial" font-size="10.00" fill="#000000">FOREIGN KEY (table2_id) REFERENCES table2(id)</text>
</g>
</g>
</svg>
