<?xml version="1.0" encoding="UTF-8" standalone="no"?>
<!DOCTYPE svg PUBLIC "-//W3C//DTD SVG 1.1//EN"
 "http://www.w3.org/Graphics/SVG/1.1/DTD/svg11.dtd">
<!-- Generated by graphviz version 2.40.1 (20161225.0304)
 -->
<!-- Title: postgres Pages: 1 -->
<svg width="765pt" height="683pt"
 viewBox="0.00 0.00 765.00 683.00" xmlns="http://www.w3.org/2000/svg" xmlns:xlink="http://www.w3.org/1999/xlink">
<g id="graph0" class="graph" transform="scale(1 1) rotate(0) translate(4 679)">
<title>postgres</title>
<polygon fill="#ffffff" stroke="transparent" points="-4,4 -4,-679 761,-679 761,4 -4,4"/>
<!-- public.table1 -->
<g id="node1" class="node">
<title>public.table1</title>
<polygon fill="#efefef" stroke="transparent" points="126,-102.5 126,-137.5 368,-137.5 368,-102.5 126,-102.5"/>
<polygon fill="none" stroke="#000000" points="126,-102.5 126,-137.5 368,-137.5 368,-102.5 126,-102.5"/>
<text text-anchor="start" x="132.7008" y="-115.3" font-family="Arial Bold" font-size="18.00" fill="#000000">public.table1</text>
<text text-anchor="start" x="233.7312" y="-115.3" font-family="Arial" font-size="14.00" fill="#000000">    </text>
<text text-anchor="start" x="267.936" y="-115.3" font-family="Arial" font-size="14.00" fill="#666666">[BASE TABLE]</text>
<polygon fill="none" stroke="#000000" points="126,-72.5 126,-102.5 368,-102.5 368,-72.5 126,-72.5"/>
<text text-anchor="start" x="133" y="-83.9" font-family="Arial" font-size="14.00" fill="#000000">id    </text>
<text text-anchor="start" x="178.094" y="-83.9" font-family="Arial" font-size="14.00" fill="#666666">[integer]</text>
<polygon fill="none" stroke="#000000" points="126,-42.5 126,-72.5 368,-72.5 368,-42.5 126,-42.5"/>
<text text-anchor="start" x="133" y="-53.9" font-family="Arial" font-size="14.00" fill="#000000">name    </text>
<text text-anchor="start" x="202.2132" y="-53.9" font-family="Arial" font-size="14.00" fill="#666666">[varchar(100)]</text>
</g>
<!-- public.table2 -->
<g id="node2" class="node">
<title>public.table2</title>
<polygon fill="#efefef" stroke="transparent" points="126,-349.5 126,-384.5 368,-384.5 368,-349.5 126,-349.5"/>
<polygon fill="none" stroke="#000000" points="126,-349.5 126,-384.5 368,-384.5 368,-349.5 126,-349.5"/>
<text text-anchor="start" x="132.7008" y="-362.3" font-family="Arial Bold" font-size="18.00" fill="#000000">public.table2</text>
<text text-anchor="start" x="233.7312" y="-362.3" font-family="Arial" font-size="14.00" fill="#000000">    </text>
<text text-anchor="start" x="267.936" y="-362.3" font-family="Arial" font-size="14.00" fill="#666666">[BASE TABLE]</text>
<polygon fill="none" stroke="#000000" points="126,-319.5 126,-349.5 368,-349.5 368,-319.5 126,-319.5"/>
<text text-anchor="start" x="133" y="-330.9" font-family="Arial" font-size="14.00" fill="#000000">id    </text>
<text text-anchor="start" x="178.094" y="-330.9" font-family="Arial" font-size="14.00" fill="#666666">[integer]</text>
<polygon fill="none" stroke="#000000" points="126,-289.5 126,-319.5 368,-319.5 368,-289.5 126,-289.5"/>
<text text-anchor="start" x="133" y="-300.9" font-family="Arial" font-size="14.00" fill="#000000">name    </text>
<text text-anchor="start" x="202.2132" y="-300.9" font-family="Arial" font-size="14.00" fill="#666666">[varchar(100)]</text>
<polygon fill="none" stroke="#000000" points="126,-259.5 126,-289.5 368,-289.5 368,-259.5 126,-259.5"/>
<text text-anchor="start" x="133" y="-270.9" font-family="Arial" font-size="14.00" fill="#000000">table1_id    </text>
<text text-anchor="start" x="224.0042" y="-270.9" font-family="Arial" font-size="14.00" fill="#666666">[integer]</text>
</g>
<!-- public.table2&#45;&gt;public.table1 -->
<g id="edge1" class="edge">
<title>public.table2:table1_id&#45;&gt;public.table1:id</title>
<path fill="none" stroke="#000000" d="M247.9009,-249.2828C257.3884,-199.9729 339.1925,-234.028 368,-181 387.8369,-144.4848 409.5556,-87.5 368,-87.5"/>
<polygon fill="#000000" stroke="#000000" points="247.8784,-249.5386 242.5174,-259.1047 247.4392,-254.5193 247,-259.5 247,-259.5 247,-259.5 247.4392,-254.5193 251.4826,-259.8953 247.8784,-249.5386 247.8784,-249.5386"/>
<text text-anchor="start" x="7.0475" y="-269.5" font-family="Arial" font-size="10.00" fill="#000000">FOREIGN KEY (table1_id) REFERENCES table1(id)</text>
</g>
<!-- public.table3 -->
<g id="node3" class="node">
<title>public.table3</title>
<polygon fill="#efefef" stroke="transparent" points="126,-596.5 126,-631.5 368,-631.5 368,-596.5 126,-596.5"/>
<polygon fill="none" stroke="#000000" points="126,-596.5 126,-631.5 368,-631.5 368,-596.5 126,-596.5"/>
<text text-anchor="start" x="132.7008" y="-609.3" font-family="Arial Bold" font-size="18.00" fill="#000000">public.table3</text>
<text text-anchor="start" x="233.7312" y="-609.3" font-family="Arial" font-size="14.00" fill="#000000">    </text>
<text text-anchor="start" x="267.936" y="-609.3" font-family="Arial" font-size="14.00" fill="#666666">[BASE TABLE]</text>
<polygon fill="none" stroke="#000000" points="126,-566.5 126,-596.5 368,-596.5 368,-566.5 126,-566.5"/>
<text text-anchor="start" x="133" y="-577.9" font-family="Arial" font-size="14.00" fill="#000000">id    </text>
<text text-anchor="start" x="178.094" y="-577.9" font-family="Arial" font-size="14.00" fill="#666666">[integer]</text>
<polygon fill="none" stroke="#000000" points="126,-536.5 126,-566.5 368,-566.5 368,-536.5 126,-536.5"/>
<text text-anchor="start" x="133" y="-547.9" font-family="Arial" font-size="14.00" fill="#000000">name    </text>
<text text-anchor="start" x="202.2132" y="-547.9" font-family="Arial" font-size="14.00" fill="#666666">[varchar(100)]</text>
<polygon fill="none" stroke="#000000" points="126,-506.5 126,-536.5 368,-536.5 368,-506.5 126,-506.5"/>
<text text-anchor="start" x="133" y="-517.9" font-family="Arial" font-size="14.00" fill="#000000">table2_id    </text>
<text text-anchor="start" x="224.0042" y="-517.9" font-family="Arial" font-size="14.00" fill="#666666">[integer]</text>
</g>
<!-- public.table3&#45;&gt;public.table2 -->
<g id="edge2" class="edge">
<title>public.table3:table2_id&#45;&gt;public.table2:id</title>
<path fill="none" stroke="#000000" d="M247.9009,-496.2828C257.3884,-446.9729 339.1925,-481.028 368,-428 387.8369,-391.4848 409.5556,-334.5 368,-334.5"/>
<polygon fill="#000000" stroke="#000000" points="247.8784,-496.5386 242.5174,-506.1047 247.4392,-501.5193 247,-506.5 247,-506.5 247,-506.5 247.4392,-501.5193 251.4826,-506.8953 247.8784,-496.5386 247.8784,-496.5386"/>
<text text-anchor="start" x="7.0475" y="-516.5" font-family="Arial" font-size="10.00" fill="#000000">FOREIGN KEY (table2_id) REFERENCES table2(id)</text>
</g>
<!-- public.table4 -->
<g id="node4" class="node">
<title>public.table4</title>
<polygon fill="#efefef" stroke="transparent" points="472,-581.5 472,-616.5 714,-616.5 714,-581.5 472,-581.5"/>
<polygon fill="none" stroke="#000000" points="472,-581.5 472,-616.5 714,-616.5 714,-581.5 472,-581.5"/>
<text text-anchor="start" x="478.7008" y="-594.3" font-family="Arial Bold" font-size="18.00" fill="#000000">public.table4</text>
<text text-anchor="start" x="579.7312" y="-594.3" font-family="Arial" font-size="14.00" fill="#000000">    </text>
<text text-anchor="start" x="613.936" y="-594.3" font-family="Arial" font-size="14.00" fill="#666666">[BASE TABLE]</text>
<polygon fill="none" stroke="#000000" points="472,-551.5 472,-581.5 714,-581.5 714,-551.5 472,-551.5"/>
<text text-anchor="start" x="479" y="-562.9" font-family="Arial" font-size="14.00" fill="#000000">id    </text>
<text text-anchor="start" x="524.094" y="-562.9" font-family="Arial" font-size="14.00" fill="#666666">[integer]</text>
<polygon fill="none" stroke="#000000" points="472,-521.5 472,-551.5 714,-551.5 714,-521.5 472,-521.5"/>
<text text-anchor="start" x="479" y="-532.9" font-family="Arial" font-size="14.00" fill="#000000">name    </text>
<text text-anchor="start" x="548.2132" y="-532.9" font-family="Arial" font-size="14.00" fill="#666666">[varchar(100)]</text>
</g>
</g>
</svg>
